<svg fill="none" height="25" viewBox="0 0 24 25" width="24" xmlns="http://www.w3.org/2000/svg" id="fi_12822453"><g fill="rgb(0,0,0)"><path d="m15.3101 13.9797c-.592 0-1.0718-.4799-1.0718-1.0718s.4798-1.0718 1.0718-1.0718c.5919 0 1.0717.4799 1.0717 1.0718s-.4798 1.0718-1.0717 1.0718z"></path><path d="m12.0005 13.9797c-.5919 0-1.0718-.4799-1.0718-1.0718s.4799-1.0718 1.0718-1.0718 1.0718.4799 1.0718 1.0718-.4799 1.0718-1.0718 1.0718z"></path><path d="m8.68994 13.9797c-.59192 0-1.07178-.4799-1.07178-1.0718s.47986-1.0718 1.07178-1.0718c.59193 0 1.07178.4799 1.07178 1.0718s-.47985 1.0718-1.07178 1.0718z"></path><g clip-rule="evenodd" fill-rule="evenodd"><path d="m4.28568 7.61945c0-1.51879 1.23121-2.75 2.75-2.75h.32751c.41421 0 .75.33578.75.75 0 .41421-.33579.75-.75.75h-.32751c-.69036 0-1.25.55964-1.25 1.25v3.20635c0 .2071-.08566.405-.23667.5468l-1.05343.9889c-.31556.2963-.31556.7974 0 1.0936l1.05343.989c.15101.1418.23667.3397.23667.5468v3.2063c0 .6904.55964 1.25 1.25 1.25h.32751c.41421 0 .75.3358.75.75 0 .4143-.33579.75-.75.75h-.32751c-1.51879 0-2.75-1.2312-2.75-2.75v-2.8817l-.81676-.7667c-.94668-.8888-.94668-2.3921 0-3.2809l.81676-.7667z"></path><path d="m19.7142 7.61945c0-1.51879-1.2312-2.75-2.75-2.75h-.3275c-.4142 0-.75.33578-.75.75 0 .41421.3358.75.75.75h.3275c.6904 0 1.25.55964 1.25 1.25v3.20635c0 .2071.0857.405.2367.5468l1.0534.9889c.3156.2963.3156.7974 0 1.0936l-1.0534.989c-.151.1418-.2367.3397-.2367.5468v3.2063c0 .6904-.5596 1.25-1.25 1.25h-.3275c-.4142 0-.75.3358-.75.75 0 .4143.3358.75.75.75h.3275c1.5188 0 2.75-1.2312 2.75-2.75v-2.8817l.8168-.7667c.9466-.8888.9466-2.3921 0-3.2809l-.8168-.7667z"></path></g></g></svg>